# xmcd
#
# Track frame offsets: 
#        150
#        54070
#        133350
#        186291
#        229521
#        279645
#        321831
#
# Disc length: 4724 seconds
#
# Revision: 6
# Processed by: cddbd v1.5.2PL0 Copyright (c) Steve Scherf et al.
# Submitted via: ExactAudioCopy v0.99pb4
#
DISCID=60127207
DTITLE=Dave Holland - Overtime
DYEAR=2005
DGENRE=Jazz
TTITLE0=Monterey Suite I - Bring It On
TTITLE1=Monterey Suite II - Free For All
TTITLE2=Monterey Suite III - A Time Remembered
TTITLE3=Monterey Suite IV - Happy Jammy
TTITLE4=Ario
TTITLE5=Mental Images
TTITLE6=Last Minute Man
EXTD=YEAR: 2004
EXTT0=
EXTT1=
EXTT2=
EXTT3=
EXTT4=
EXTT5=
EXTT6=
PLAYORDER=
